<svg width="20" height="20" viewBox="0 0 20 20" fill="none" xmlns="http://www.w3.org/2000/svg">
<path d="M13.125 11.25C13.125 11.8681 12.9417 12.4723 12.5983 12.9862C12.255 13.5001 11.7669 13.9006 11.1959 14.1371C10.6249 14.3736 9.99653 14.4355 9.39034 14.315C8.78415 14.1944 8.22733 13.8967 7.79029 13.4597C7.35325 13.0227 7.05563 12.4658 6.93505 11.8597C6.81447 11.2535 6.87635 10.6251 7.11288 10.0541C7.3494 9.48309 7.74994 8.99504 8.26384 8.65166C8.77775 8.30828 9.38193 8.125 10 8.125C10.8288 8.125 11.6237 8.45424 12.2097 9.04029C12.7958 9.62634 13.125 10.4212 13.125 11.25ZM5 4.375C4.50555 4.375 4.0222 4.52162 3.61108 4.79633C3.19995 5.07103 2.87952 5.46148 2.6903 5.91829C2.50108 6.37511 2.45157 6.87777 2.54804 7.36273C2.6445 7.84768 2.8826 8.29314 3.23223 8.64277C3.58187 8.9924 4.02732 9.2305 4.51228 9.32696C4.99723 9.42343 5.49989 9.37392 5.95671 9.1847C6.41353 8.99548 6.80397 8.67505 7.07868 8.26393C7.35338 7.8528 7.5 7.36945 7.5 6.875C7.5 6.21196 7.23661 5.57607 6.76777 5.10723C6.29893 4.63839 5.66304 4.375 5 4.375ZM15 4.375C14.5055 4.375 14.0222 4.52162 13.6111 4.79633C13.2 5.07103 12.8795 5.46148 12.6903 5.91829C12.5011 6.37511 12.4516 6.87777 12.548 7.36273C12.6445 7.84768 12.8826 8.29314 13.2322 8.64277C13.5819 8.9924 14.0273 9.2305 14.5123 9.32696C14.9972 9.42343 15.4999 9.37392 15.9567 9.1847C16.4135 8.99548 16.804 8.67505 17.0787 8.26393C17.3534 7.8528 17.5 7.36945 17.5 6.875C17.5 6.21196 17.2366 5.57607 16.7678 5.10723C16.2989 4.63839 15.663 4.375 15 4.375Z" fill="#1C1C1C" fill-opacity="0.1"/>
<path d="M19.125 11.75C19.0593 11.7992 18.9846 11.8351 18.9051 11.8554C18.8256 11.8758 18.7429 11.8803 18.6616 11.8687C18.5804 11.8571 18.5022 11.8296 18.4316 11.7878C18.3609 11.746 18.2992 11.6907 18.25 11.625C17.8733 11.1186 17.3829 10.7078 16.8185 10.4256C16.254 10.1433 15.6311 9.99755 15 10C14.8342 10 14.6753 9.93415 14.558 9.81694C14.4408 9.69973 14.375 9.54076 14.375 9.375C14.375 9.20924 14.4408 9.05027 14.558 8.93306C14.6753 8.81585 14.8342 8.75 15 8.75C15.3507 8.74997 15.6943 8.65159 15.9919 8.46605C16.2895 8.2805 16.529 8.01522 16.6834 7.70034C16.8378 7.38546 16.9007 7.0336 16.8652 6.68473C16.8296 6.33586 16.6969 6.00396 16.4821 5.72673C16.2673 5.44951 15.9791 5.23806 15.6502 5.11642C15.3213 4.99477 14.9649 4.96781 14.6214 5.03858C14.278 5.10935 13.9612 5.27503 13.7072 5.51679C13.4532 5.75855 13.272 6.0667 13.1844 6.40625C13.1638 6.48576 13.1279 6.56045 13.0785 6.62606C13.0291 6.69166 12.9673 6.7469 12.8965 6.78861C12.8258 6.83033 12.7476 6.8577 12.6662 6.86917C12.5849 6.88064 12.5022 6.87598 12.4226 6.85547C12.3431 6.83495 12.2684 6.79897 12.2028 6.74958C12.1372 6.7002 12.082 6.63837 12.0403 6.56764C11.9986 6.49691 11.9712 6.41865 11.9597 6.33734C11.9483 6.25603 11.9529 6.17326 11.9734 6.09375C12.0951 5.6229 12.325 5.18695 12.6448 4.82058C12.9646 4.45422 13.3656 4.16755 13.8157 3.9834C14.2658 3.79924 14.7526 3.72267 15.2375 3.75979C15.7224 3.7969 16.192 3.94668 16.6088 4.19719C17.0256 4.44771 17.3782 4.79205 17.6386 5.20282C17.8989 5.61359 18.0598 6.07946 18.1084 6.56334C18.157 7.04722 18.092 7.53577 17.9186 7.99011C17.7451 8.44446 17.468 8.85205 17.1094 9.18047C17.9592 9.54843 18.698 10.1324 19.2523 10.8742C19.3016 10.94 19.3374 11.0149 19.3576 11.0946C19.3779 11.1743 19.3822 11.2572 19.3704 11.3385C19.3585 11.4199 19.3308 11.4981 19.2887 11.5687C19.2466 11.6393 19.1909 11.7009 19.125 11.75ZM14.9156 16.5625C14.9593 16.6336 14.9882 16.7128 15.0007 16.7953C15.0133 16.8778 15.0092 16.962 14.9886 17.0429C14.9681 17.1238 14.9316 17.1998 14.8812 17.2664C14.8309 17.3329 14.7677 17.3887 14.6954 17.4305C14.6232 17.4722 14.5433 17.499 14.4605 17.5094C14.3776 17.5198 14.2936 17.5134 14.2133 17.4908C14.1329 17.4682 14.0579 17.4297 13.9927 17.3776C13.9275 17.3255 13.8734 17.2608 13.8336 17.1875C13.4398 16.521 12.8791 15.9687 12.2068 15.585C11.5345 15.2013 10.7737 14.9995 9.9996 14.9995C9.22549 14.9995 8.46475 15.2013 7.79242 15.585C7.12008 15.9687 6.55938 16.521 6.16562 17.1875C6.12655 17.2622 6.07277 17.3282 6.00752 17.3816C5.94228 17.4349 5.86691 17.4746 5.78595 17.498C5.705 17.5215 5.62013 17.5284 5.53645 17.5182C5.45277 17.5081 5.37202 17.4811 5.29904 17.4389C5.22606 17.3967 5.16237 17.3402 5.11179 17.2728C5.06122 17.2053 5.02482 17.1284 5.00476 17.0465C4.98471 16.9646 4.98142 16.8795 4.9951 16.7964C5.00878 16.7132 5.03915 16.6336 5.08437 16.5625C5.6903 15.5214 6.61421 14.7021 7.7203 14.225C7.0979 13.7485 6.64048 13.0889 6.41234 12.3389C6.18419 11.589 6.19679 10.7864 6.44836 10.044C6.69994 9.30157 7.17784 8.65666 7.81489 8.1999C8.45194 7.74314 9.21611 7.49749 9.99999 7.49749C10.7839 7.49749 11.548 7.74314 12.1851 8.1999C12.8221 8.65666 13.3 9.30157 13.5516 10.044C13.8032 10.7864 13.8158 11.589 13.5876 12.3389C13.3595 13.0889 12.9021 13.7485 12.2797 14.225C13.3858 14.7021 14.3097 15.5214 14.9156 16.5625ZM9.99999 13.75C10.4944 13.75 10.9778 13.6034 11.3889 13.3287C11.8 13.054 12.1205 12.6635 12.3097 12.2067C12.4989 11.7499 12.5484 11.2472 12.452 10.7623C12.3555 10.2773 12.1174 9.83186 11.7678 9.48223C11.4181 9.1326 10.9727 8.8945 10.4877 8.79803C10.0028 8.70157 9.5001 8.75108 9.04328 8.9403C8.58647 9.12952 8.19602 9.44995 7.92132 9.86107C7.64662 10.2722 7.49999 10.7555 7.49999 11.25C7.49999 11.913 7.76338 12.5489 8.23223 13.0178C8.70107 13.4866 9.33695 13.75 9.99999 13.75ZM5.62499 9.375C5.62499 9.20924 5.55914 9.05027 5.44193 8.93306C5.32472 8.81585 5.16575 8.75 4.99999 8.75C4.64931 8.74997 4.30567 8.65159 4.00809 8.46605C3.71052 8.2805 3.47094 8.01522 3.31658 7.70034C3.16222 7.38546 3.09925 7.0336 3.13484 6.68473C3.17042 6.33586 3.30313 6.00396 3.51789 5.72673C3.73265 5.44951 4.02085 5.23806 4.34976 5.11642C4.67866 4.99477 5.03509 4.96781 5.37856 5.03858C5.72203 5.10935 6.03876 5.27503 6.29279 5.51679C6.54681 5.75855 6.72795 6.0667 6.81562 6.40625C6.85706 6.56683 6.96059 6.70437 7.10344 6.78861C7.24629 6.87286 7.41676 6.89691 7.57734 6.85547C7.73792 6.81403 7.87546 6.71049 7.9597 6.56764C8.04395 6.42479 8.06799 6.25433 8.02655 6.09375C7.90487 5.6229 7.67497 5.18695 7.35516 4.82058C7.03534 4.45422 6.63443 4.16755 6.18433 3.9834C5.73423 3.79924 5.24736 3.72267 4.76246 3.75979C4.27756 3.7969 3.80801 3.94668 3.39119 4.19719C2.97436 4.44771 2.62175 4.79205 2.36142 5.20282C2.10108 5.61359 1.94021 6.07946 1.89161 6.56334C1.843 7.04722 1.908 7.53577 2.08143 7.99011C2.25486 8.44446 2.53194 8.85205 2.89062 9.18047C2.04162 9.54878 1.30368 10.1327 0.749993 10.8742C0.650433 11.0068 0.607629 11.1736 0.630998 11.3377C0.654367 11.5019 0.741994 11.65 0.874602 11.7496C1.00721 11.8492 1.17394 11.892 1.33811 11.8686C1.50227 11.8452 1.65043 11.7576 1.74999 11.625C2.1267 11.1186 2.61703 10.7078 3.18152 10.4256C3.74601 10.1433 4.36888 9.99755 4.99999 10C5.16575 10 5.32472 9.93415 5.44193 9.81694C5.55914 9.69973 5.62499 9.54076 5.62499 9.375Z" fill="#1C1C1C"/>
</svg>
