<svg width="20" height="20" viewBox="0 0 20 20" fill="none" xmlns="http://www.w3.org/2000/svg">
<path d="M2.5 9.375H6.9375C7.08143 9.37424 7.22113 9.42375 7.3324 9.51508C7.44368 9.60632 7.51955 9.73366 7.54688 9.87503C7.66623 10.4371 7.97503 10.9412 8.42157 11.3029C8.86812 11.6646 9.42535 11.862 10 11.862C10.5746 11.862 11.1319 11.6646 11.5784 11.3029C12.025 10.9412 12.3338 10.4371 12.4531 9.87503C12.4804 9.73366 12.5563 9.60632 12.6676 9.51508C12.7789 9.42375 12.9186 9.37424 13.0625 9.375H17.5V5.625C17.5 5.2935 17.3683 4.97551 17.1339 4.74113C16.8995 4.50668 16.5815 4.375 16.25 4.375H3.75C3.41848 4.375 3.10053 4.50668 2.86612 4.74113C2.6317 4.97551 2.5 5.2935 2.5 5.625V9.375Z" fill="#000000" fill-opacity="0.1"/>
<path fill-rule="evenodd" clip-rule="evenodd" d="M1.875 5.625C1.875 5.625 1.875 4.84835 2.42417 4.29917C2.42417 4.29917 2.97335 3.75 3.75 3.75H16.25C16.25 3.75 17.0266 3.75 17.5758 4.29918C17.5758 4.29918 18.125 4.84835 18.125 5.625V14.375C18.125 14.375 18.125 15.1517 17.5758 15.7008C17.5758 15.7008 17.0267 16.25 16.25 16.25H3.75C3.75 16.25 2.97335 16.25 2.42417 15.7008C2.42417 15.7008 1.875 15.1516 1.875 14.375V5.625ZM3.125 5.625L3.125 14.375C3.125 14.375 3.125 14.6339 3.30806 14.8169C3.30806 14.8169 3.49112 15 3.75 15H16.25C16.25 15 16.5089 15 16.6919 14.8169C16.6919 14.8169 16.875 14.6339 16.875 14.375V5.625C16.875 5.625 16.875 5.36612 16.6919 5.18306C16.6919 5.18306 16.5089 5 16.25 5L3.75 5C3.75 5 3.49112 5 3.30806 5.18306C3.30806 5.18306 3.125 5.36612 3.125 5.625Z" fill="#000000"/>
<path d="M13.0654 9.99999H17.5C17.8452 9.99999 18.125 9.72017 18.125 9.37499C18.125 9.02981 17.8452 8.74999 17.5 8.74999H13.0625C12.6177 8.74752 12.2711 9.03187 12.2711 9.03187C11.9246 9.31621 11.8395 9.75632 11.8395 9.75632C11.7032 10.3975 11.1851 10.8172 11.1851 10.8172C10.6669 11.2369 10 11.2369 10 11.2369C9.33314 11.2369 8.81495 10.8172 8.81495 10.8172C8.29675 10.3975 8.15825 9.74518 8.15825 9.74518C8.0754 9.31621 7.72885 9.03187 7.72885 9.03187C7.38231 8.74752 6.93404 8.75 6.93404 8.75L2.5 8.74999C2.15482 8.74999 1.875 9.02981 1.875 9.37499C1.875 9.72017 2.15482 9.99999 2.5 9.99999L6.93476 9.99998C6.93486 10.0017 6.9355 10.0048 6.9355 10.0048C7.16596 11.0902 8.02819 11.7886 8.02819 11.7886C8.89042 12.4869 10 12.4869 10 12.4869C11.1096 12.4869 11.9718 11.7886 11.9718 11.7886C12.8315 11.0922 13.0654 9.99999 13.0654 9.99999Z" fill="#000000"/>
<path d="M2.5 7.5H17.5C17.8452 7.5 18.125 7.22018 18.125 6.875C18.125 6.52982 17.8452 6.25 17.5 6.25H2.5C2.15482 6.25 1.875 6.52982 1.875 6.875C1.875 7.22018 2.15482 7.5 2.5 7.5Z" fill="#000000"/>
</svg>
