<svg width="20" height="20" viewBox="0 0 20 20" fill="none" xmlns="http://www.w3.org/2000/svg">
<path d="M15.625 2.5H4.375C4.20924 2.5 4.05027 2.56585 3.93306 2.68306C3.81585 2.80027 3.75 2.95924 3.75 3.125V16.875C3.75 17.0408 3.81585 17.1997 3.93306 17.3169C4.05027 17.4342 4.20924 17.5 4.375 17.5H15.625C15.7908 17.5 15.9497 17.4342 16.0669 17.3169C16.1842 17.1997 16.25 17.0408 16.25 16.875V3.125C16.25 2.95924 16.1842 2.80027 16.0669 2.68306C15.9497 2.56585 15.7908 2.5 15.625 2.5ZM10 13.125C9.50555 13.125 9.0222 12.9784 8.61107 12.7037C8.19995 12.429 7.87952 12.0385 7.6903 11.5817C7.50108 11.1249 7.45157 10.6222 7.54804 10.1373C7.6445 9.65232 7.8826 9.20686 8.23223 8.85723C8.58186 8.5076 9.02732 8.2695 9.51227 8.17304C9.99723 8.07657 10.4999 8.12608 10.9567 8.3153C11.4135 8.50452 11.804 8.82495 12.0787 9.23607C12.3534 9.6472 12.5 10.1305 12.5 10.625C12.5 11.288 12.2366 11.9239 11.7678 12.3928C11.2989 12.8616 10.663 13.125 10 13.125Z" fill="#1C1C1C" fill-opacity="0.1"/>
<path d="M5.87422 15.5C5.9399 15.5494 6.01468 15.5853 6.09426 15.6057C6.17385 15.6262 6.25669 15.6307 6.33803 15.6191C6.41937 15.6075 6.49763 15.58 6.56832 15.5381C6.63901 15.4962 6.70075 15.4408 6.75 15.375C7.12841 14.8705 7.61909 14.4609 8.1832 14.1789C8.7473 13.8968 9.36932 13.75 10 13.75C10.6307 13.75 11.2527 13.8968 11.8168 14.1789C12.3809 14.4609 12.8716 14.8705 13.25 15.375C13.2992 15.4407 13.3609 15.496 13.4316 15.5378C13.5022 15.5796 13.5804 15.6071 13.6616 15.6187C13.7429 15.6303 13.8256 15.6258 13.9051 15.6054C13.9846 15.5851 14.0593 15.5492 14.125 15.5C14.1907 15.4508 14.246 15.3891 14.2878 15.3184C14.3296 15.2478 14.3571 15.1696 14.3687 15.0884C14.3803 15.0071 14.3758 14.9244 14.3554 14.8449C14.3351 14.7654 14.2992 14.6907 14.25 14.625C13.6966 13.883 12.9586 13.2988 12.1094 12.9305C12.5748 12.5056 12.9008 11.9499 13.0447 11.3364C13.1887 10.7229 13.1438 10.0802 12.9159 9.49267C12.688 8.90514 12.2879 8.40023 11.7679 8.0442C11.248 7.68816 10.6325 7.49765 10.0023 7.49765C9.37218 7.49765 8.75673 7.68816 8.23678 8.0442C7.71682 8.40023 7.31666 8.90514 7.08879 9.49267C6.86093 10.0802 6.81602 10.7229 6.95995 11.3364C7.10388 11.9499 7.42993 12.5056 7.89531 12.9305C7.0444 13.2981 6.30472 13.8824 5.75 14.625C5.65046 14.7575 5.60763 14.9241 5.63092 15.0882C5.65422 15.2523 5.74173 15.4004 5.87422 15.5ZM10 8.75C10.3708 8.75 10.7334 8.85997 11.0417 9.06599C11.35 9.27202 11.5904 9.56486 11.7323 9.90747C11.8742 10.2501 11.9113 10.6271 11.839 10.9908C11.7666 11.3545 11.588 11.6886 11.3258 11.9508C11.0636 12.213 10.7295 12.3916 10.3658 12.464C10.0021 12.5363 9.62508 12.4992 9.28247 12.3573C8.93986 12.2154 8.64702 11.975 8.44099 11.6667C8.23497 11.3584 8.125 10.9958 8.125 10.625C8.125 10.1277 8.32254 9.65081 8.67417 9.29917C9.02581 8.94754 9.50272 8.75 10 8.75ZM15.625 1.875H4.375C4.04348 1.875 3.72554 2.0067 3.49112 2.24112C3.2567 2.47554 3.125 2.79348 3.125 3.125V16.875C3.125 17.2065 3.2567 17.5245 3.49112 17.7589C3.72554 17.9933 4.04348 18.125 4.375 18.125H15.625C15.9565 18.125 16.2745 17.9933 16.5089 17.7589C16.7433 17.5245 16.875 17.2065 16.875 16.875V3.125C16.875 2.79348 16.7433 2.47554 16.5089 2.24112C16.2745 2.0067 15.9565 1.875 15.625 1.875ZM15.625 16.875H4.375V3.125H15.625V16.875ZM6.875 5C6.875 4.83424 6.94085 4.67527 7.05806 4.55806C7.17527 4.44085 7.33424 4.375 7.5 4.375H12.5C12.6658 4.375 12.8247 4.44085 12.9419 4.55806C13.0592 4.67527 13.125 4.83424 13.125 5C13.125 5.16576 13.0592 5.32473 12.9419 5.44194C12.8247 5.55915 12.6658 5.625 12.5 5.625H7.5C7.33424 5.625 7.17527 5.55915 7.05806 5.44194C6.94085 5.32473 6.875 5.16576 6.875 5Z" fill="#1C1C1C"/>
</svg>
