<svg width="20" height="20" viewBox="0 0 20 20" fill="none" xmlns="http://www.w3.org/2000/svg">
<path fill-rule="evenodd" clip-rule="evenodd" d="M1.875 6.875C1.875 6.875 1.875 6.35723 2.24112 5.99112C2.24112 5.99112 2.60723 5.625 3.125 5.625H16.875C16.875 5.625 17.3928 5.625 17.7589 5.99112C17.7589 5.99112 18.125 6.35723 18.125 6.875V9.375C18.125 9.375 18.125 9.89277 17.7589 10.2589C17.7589 10.2589 17.3928 10.625 16.875 10.625H3.125C3.125 10.625 2.60723 10.625 2.24112 10.2589C2.24112 10.2589 1.875 9.89277 1.875 9.375V6.875ZM3.125 6.875V9.375H16.875V6.875H3.125Z" fill="#060809"/>
<path d="M4.375 15.625V10C4.375 9.65482 4.09518 9.375 3.75 9.375C3.40482 9.375 3.125 9.65482 3.125 10V15.625C3.125 16.1428 3.49112 16.5089 3.49112 16.5089C3.85723 16.875 4.375 16.875 4.375 16.875H15.625C16.1428 16.875 16.5089 16.5089 16.5089 16.5089C16.875 16.1428 16.875 15.625 16.875 15.625V10C16.875 9.65482 16.5952 9.375 16.25 9.375C15.9048 9.375 15.625 9.65482 15.625 10V15.625H4.375Z" fill="#060809"/>
<path d="M9.375 6.25V16.25C9.375 16.5952 9.65482 16.875 10 16.875C10.3452 16.875 10.625 16.5952 10.625 16.25V6.25C10.625 5.90482 10.3452 5.625 10 5.625C9.65482 5.625 9.375 5.90482 9.375 6.25Z" fill="#04050F"/>
<path fill-rule="evenodd" clip-rule="evenodd" d="M11.5238 6.75837C11.5238 6.75837 13.2755 6.50845 13.9791 5.81106L13.981 5.80908L13.9815 5.80862C13.9815 5.80862 14.7142 5.07558 14.7142 4.03905C14.7142 4.03905 14.7142 3.00217 13.981 2.26898C13.981 2.26898 13.2478 1.5358 12.2109 1.5358C12.2109 1.5358 11.1741 1.5358 10.4409 2.26898C10.4409 2.26898 9.74154 2.97449 9.49162 4.72616C9.49162 4.72616 9.375 5.54352 9.375 6.24999C9.375 6.41575 9.44085 6.57472 9.55806 6.69193C9.67527 6.80914 9.83424 6.87499 10 6.87499C10 6.87499 10.7065 6.87499 11.5238 6.75837ZM13.4642 4.03905C13.4642 4.03905 13.4642 4.55743 13.0982 4.92419C13.0982 4.92419 12.6879 5.32963 11.3473 5.5209C11.3473 5.5209 10.9856 5.5725 10.6515 5.59852C10.6515 5.59852 10.6775 5.26435 10.7291 4.90272C10.7291 4.90272 10.9206 3.56064 11.3248 3.15287C11.3248 3.15287 11.6918 2.7858 12.2109 2.7858C12.2109 2.7858 12.7301 2.7858 13.0971 3.15287C13.0971 3.15287 13.4642 3.51993 13.4642 4.03905Z" fill="#04050F"/>
<path d="M6.01862 5.80878L6.01886 5.80902L6.01928 5.80944L6.01862 5.80878Z" fill="#04050F"/>
<path d="M16.25 10V15.625C16.25 15.7907 16.1842 15.9497 16.0669 16.0669C15.9497 16.1841 15.7908 16.25 15.625 16.25H4.375C4.20924 16.25 4.05027 16.1841 3.93306 16.0669C3.81585 15.9497 3.75 15.7907 3.75 15.625V10H16.25Z" fill="black" fill-opacity="0.1"/>
</svg>
