<svg width="28" height="24" viewBox="0 0 28 24" fill="none" xmlns="http://www.w3.org/2000/svg">
<path d="M20.875 14C20.875 15.3597 20.4718 16.689 19.7164 17.8195C18.9609 18.9501 17.8872 19.8313 16.631 20.3517C15.3747 20.872 13.9924 21.0082 12.6588 20.7429C11.3251 20.4776 10.1001 19.8228 9.13864 18.8614C8.17716 17.8999 7.52238 16.6749 7.2571 15.3412C6.99183 14.0076 7.12798 12.6253 7.64833 11.3691C8.16868 10.1128 9.04987 9.03908 10.1805 8.28365C11.311 7.52821 12.6403 7.125 14 7.125C15.8234 7.125 17.5721 7.84933 18.8614 9.13864C20.1507 10.428 20.875 12.1766 20.875 14Z" fill="#1C1C1C" fill-opacity="0.1"/>
<path d="M14.625 10.25V13.6461L17.4469 15.3391C17.589 15.4244 17.6914 15.5628 17.7316 15.7236C17.7717 15.8845 17.7463 16.0547 17.6609 16.1969C17.5756 16.339 17.4372 16.4414 17.2764 16.4816C17.1155 16.5217 16.9453 16.4963 16.8031 16.4109L13.6781 14.5359C13.5856 14.4804 13.5091 14.4018 13.456 14.3079C13.4029 14.214 13.375 14.1079 13.375 14V10.25C13.375 10.0842 13.4408 9.92527 13.5581 9.80806C13.6753 9.69085 13.8342 9.625 14 9.625C14.1658 9.625 14.3247 9.69085 14.4419 9.80806C14.5592 9.92527 14.625 10.0842 14.625 10.25ZM14 6.5C13.0141 6.49754 12.0374 6.69065 11.1266 7.06815C10.2158 7.44564 9.38889 8.00003 8.69375 8.69922C8.12578 9.27422 7.62109 9.82734 7.125 10.4063V9C7.125 8.83424 7.05915 8.67527 6.94194 8.55806C6.82473 8.44085 6.66576 8.375 6.5 8.375C6.33424 8.375 6.17527 8.44085 6.05806 8.55806C5.94085 8.67527 5.875 8.83424 5.875 9V12.125C5.875 12.2908 5.94085 12.4497 6.05806 12.5669C6.17527 12.6842 6.33424 12.75 6.5 12.75H9.625C9.79076 12.75 9.94973 12.6842 10.0669 12.5669C10.1842 12.4497 10.25 12.2908 10.25 12.125C10.25 11.9592 10.1842 11.8003 10.0669 11.6831C9.94973 11.5658 9.79076 11.5 9.625 11.5H7.82812C8.38672 10.8422 8.94297 10.2227 9.57734 9.58047C10.446 8.71184 11.5513 8.11844 12.7553 7.87444C13.9592 7.63043 15.2084 7.74662 16.3467 8.2085C17.485 8.67039 18.4619 9.45747 19.1555 10.4714C19.849 11.4854 20.2283 12.6812 20.2461 13.9095C20.2639 15.1378 19.9193 16.3441 19.2554 17.3777C18.5915 18.4113 17.6377 19.2263 16.5132 19.7209C15.3888 20.2155 14.1435 20.3678 12.933 20.1587C11.7225 19.9496 10.6004 19.3885 9.70703 18.5453C9.64732 18.4889 9.57708 18.4448 9.50032 18.4155C9.42356 18.3862 9.34179 18.3723 9.25967 18.3747C9.17754 18.377 9.09668 18.3954 9.0217 18.429C8.94672 18.4626 8.87908 18.5106 8.82266 18.5703C8.76623 18.63 8.72212 18.7003 8.69283 18.777C8.66355 18.8538 8.64967 18.9356 8.652 19.0177C8.65432 19.0998 8.67279 19.1807 8.70636 19.2556C8.73993 19.3306 8.78795 19.3983 8.84766 19.4547C9.73785 20.2947 10.8201 20.9042 12 21.2298C13.1799 21.5554 14.4215 21.5872 15.6166 21.3226C16.8116 21.058 17.9237 20.5049 18.8559 19.7117C19.788 18.9184 20.5118 17.9091 20.9642 16.7717C21.4165 15.6344 21.5836 14.4036 21.4509 13.1869C21.3182 11.9701 20.8897 10.8043 20.2029 9.7912C19.516 8.77811 18.5916 7.94852 17.5104 7.37483C16.4292 6.80114 15.224 6.5008 14 6.5Z" fill="#1C1C1C"/>
</svg>
